# xmcd
#
# Track frame offsets:
#	182
#	10807
#	25207
#	41632
#	56407
#	71857
#	91207
#	104332
#	117082
#	128632
#	143857
#	161257
#	172882
#	185707
#	198907
#	215632
#	227557
#	239632
#
# Disc length: 3371
#
# Revision: 1
# Processed by: cddbd v1.5.1PL0 Copyright (c) Steve Scherf et al.
# Submitted via: VisiTrax 2.9.10.228 - For more info visit www.synapsa.com
# Normalized: r0:DSETVAR1
#
DISCID=f60d2912
DTITLE=Various Artist - Country Love Songs Of The 70's
DYEAR=1900
DGENRE=Country/Pop
TTITLE0=Nelson, Willie - Blue Eyes Crying In The Rain
TTITLE1=Williams, Don - Amanda
TTITLE2=Newton John, Olivia - I Love You I Honestly Love You
TTITLE3=Bellamy Brothers, The - If I Said You Had A Beautiful Body Would You Hold It Against Me
TTITLE4=Gayle, Crystal - When I Dream
TTITLE5=Rogers, Kenny - She Believes In Me
TTITLE6=Dr Hook - Sharing The Night Together
TTITLE7=Gilley, Mickey - Room Full Of Roses
TTITLE8=Smith, Sammi - Help me Make it Through the Night
TTITLE9=Colter, Jesse - I'm Not Lisa
TTITLE10=Loggins, Kenny Feat: Stevie Nicks - Whenever I Call You Friend
TTITLE11=Fender, Freddie - Before The Next Teardrop Falls
TTITLE12=Williams, Don - You're My Best Friend
TTITLE13=Pride, Charley - Kiss An Angel Good Morning
TTITLE14=Whitakker, Roger - Last Farewell, The
TTITLE15=Robbins, Marty - 18 ellow Roses
TTITLE16=Raye, Susan - LA InternationaL Airport
TTITLE17=Young, Faron - It's Four In The Morning
EXTD=
EXTT0=
EXTT1=
EXTT2=
EXTT3=
EXTT4=
EXTT5=
EXTT6=
EXTT7=
EXTT8=
EXTT9=
EXTT10=
EXTT11=
EXTT12=
EXTT13=
EXTT14=
EXTT15=
EXTT16=
EXTT17=
PLAYORDER=
